<svg width="101" height="53" viewBox="0 0 101 53" fill="none" xmlns="http://www.w3.org/2000/svg">
<path d="M24.0368 20.9773L24.0624 20.935L24.0863 20.8917C25.2713 18.743 26.2194 16.4896 26.6566 14.5532C26.9963 14.4329 27.3508 14.301 27.7776 14.142L27.7828 14.1401C28.9147 13.7434 30.0146 13.3601 31.0128 13.0726C31.8763 12.8238 32.508 12.6947 32.9216 12.6563C32.9114 13.1095 32.7945 13.761 32.4476 14.6092C31.9404 15.849 31.02 17.3043 29.6375 18.7832C27.8794 20.664 25.4296 22.5222 22.2985 23.9775C23.3315 22.1744 23.6942 21.5444 24.0368 20.9773ZM15.1355 14.2354C9.87908 22.8792 4.66394 33.3894 3.06455 38.8526L3.06032 38.867L3.05627 38.8815C2.66016 40.2975 2.5 41.7093 2.5 42.8449C2.5 45.1278 3.27332 46.7835 4.42207 48.0279L4.45893 48.0678L4.49749 48.1061C4.79282 48.3993 5.17004 48.7365 5.61729 49C6.06638 49.2646 6.7802 49.5687 7.66193 49.4765C8.59159 49.3793 9.26417 48.8911 9.69044 48.4237C10.0862 47.9897 10.3477 47.4946 10.5287 47.0902L10.5412 47.0623L10.5531 47.0341C12.3019 42.8556 14.0526 39.2649 15.6194 36.2125C16.6521 36.3165 17.7864 36.2783 19.0446 36.1117L19.051 36.1108C23.6942 35.4838 27.9602 33.6451 31.511 31.2384C31.5955 31.5092 31.7099 31.7826 31.8581 32.0567C31.8871 32.1106 31.9173 32.167 31.9488 32.2258C32.0972 32.5029 32.2739 32.8328 32.4761 33.1948L31.5034 34.1606L32.8554 33.8567C33.2957 34.604 33.8231 35.4241 34.419 36.1738C35.1554 37.1034 36.1108 37.6685 37.2148 37.8575C38.1818 38.0231 39.1148 37.8696 39.8048 37.7253L39.8353 37.719L39.8656 37.7118C41.0092 37.4429 42.2448 37.1865 43.5332 36.9428C43.2376 37.6873 42.9769 38.376 42.7175 39.0715C42.0354 40.879 41.763 42.4277 41.763 43.7002C41.763 45.8878 42.6904 47.5135 43.4062 48.6508L43.4557 48.7295L43.511 48.8042C44.2009 49.7384 45.434 50.6649 47.0462 50.4766C48.6758 50.2862 49.671 49.0786 50.1428 47.966L50.1458 47.9589L50.1488 47.9517C51.5648 44.5539 53.6399 40.1639 56.075 35.6293C56.1815 35.6346 56.2796 35.6409 56.3706 35.6487C56.2018 36.7054 56.1276 37.701 56.1276 38.6997C56.1276 41.4995 56.9237 43.7964 58.2682 45.5876C59.592 47.3511 61.341 48.485 63.0555 49.1753C64.4898 49.7607 66.0689 50.0822 67.8382 50.0822C72.8476 50.0822 77.911 47.3139 81.7836 42.0175L81.7843 42.0166C86.2845 35.8554 94.4999 20.7235 96.8119 15.6007C97.997 13.0925 98.5 10.7625 98.5 8.89373C98.5 7.50163 98.1361 6.09849 97.5285 4.9924L97.475 4.8949L97.413 4.80253C96.8547 3.97103 95.8139 2.84909 94.2208 2.71032C92.4192 2.5534 91.1802 3.71896 90.5038 4.80019C86.8752 10.5393 79.6207 23.429 76.0215 30.378L76.0164 30.3881C74.1168 34.0967 72.1577 37.1041 70.3435 39.1436C69.4366 40.1633 68.6216 40.8776 67.9282 41.322C67.3208 41.7113 66.9108 41.8281 66.6769 41.8527C66.6516 41.7316 66.6274 41.5433 66.6274 41.2657C66.6274 40.7276 66.7594 39.9374 67.021 38.7635C67.8368 35.6735 69.7306 31.7647 71.9277 27.7528C73.0171 25.7635 74.1522 23.7994 75.2247 21.9483L75.3842 21.6731C76.3903 19.9368 77.3445 18.2902 78.1191 16.864L78.1232 16.8564C79.7611 13.8159 80.4764 11.2946 80.4764 9.22271C80.4764 7.50395 79.9761 6.13263 79.24 4.9449L79.216 4.90616L79.1906 4.86832C78.6045 3.99536 77.5442 2.90678 75.944 2.7972C74.2316 2.67994 73.005 3.73947 72.2886 4.75561L72.2649 4.78924L72.2424 4.82362C71.1907 6.42476 70.0897 8.12896 68.979 9.89058C68.7867 9.42062 68.5522 9.02147 68.364 8.70128L68.3516 8.68015L68.3482 8.67432L66.5591 5.64767L66.5553 5.64134C65.6549 4.12822 64.2144 3.42176 62.7177 3.44131C61.43 3.45814 60.3021 4.00025 59.5437 4.48756L59.5423 4.48845C54.5386 7.70802 47.9106 12.6692 42.1775 17.5436C42.2004 17.4515 42.2223 17.359 42.2433 17.266C42.7654 14.9538 42.6569 12.5176 41.764 9.81907L41.7639 9.81865C40.8134 6.94804 39.2547 4.94987 37.1339 3.772C35.0909 2.63739 32.8354 2.44053 30.8187 2.51335L30.7985 2.51408L30.7784 2.51513C27.9425 2.66334 25.3765 3.32958 22.8527 4.23385C20.3617 5.10281 18.1453 5.83867 16.0031 6.00659L15.9884 6.00775L15.9737 6.00907C15.1539 6.08308 13.6389 6.33123 12.7636 7.65383C11.8084 9.09718 12.3647 10.6035 12.6693 11.2567C13.1979 12.4168 14.0036 13.4478 15.1355 14.2354ZM49.7657 24.0856C49.4507 24.6742 49.1426 25.2597 48.8424 25.8403C48.3802 25.8776 47.9148 25.9206 47.4475 25.9688C48.2051 25.3401 48.9796 24.7115 49.7657 24.0856Z" fill="#29186B" stroke="white" stroke-width="5"/>
</svg>
