<svg width="416" height="500" viewBox="0 0 416 500" fill="none" xmlns="http://www.w3.org/2000/svg">
<rect width="416" height="500" rx="8" fill="#F7F7FD"/>
<mask id="mask0_190_8364" style="mask-type:alpha" maskUnits="userSpaceOnUse" x="0" y="0" width="416" height="500">
<rect width="416" height="500" rx="8" fill="#F7F7FD"/>
</mask>
<g mask="url(#mask0_190_8364)">
<path d="M510.306 662L736 531.668L361.695 315.522L136 445.852L510.306 662Z" fill="#100A55"/>
<path d="M727.557 531.669L361.699 320.4L144.447 445.851L510.308 657.124L727.557 531.669Z" fill="#5F259F"/>
<path d="M440.116 614.726L507.637 575.735L577.819 616.262L510.296 655.253L440.116 614.726ZM362.466 491.905L424.738 527.865L357.218 566.855L294.944 530.894L362.466 491.905ZM571.194 443.292L505.653 481.138L443.381 445.178L508.922 407.331L571.194 443.292ZM588.552 529.01L654.091 491.162L724.272 531.689L658.73 569.536L588.552 529.01ZM583.596 531.872L653.777 572.397L582.772 613.4L512.593 572.874L583.596 531.872ZM510.608 484L576.147 446.152L649.135 488.301L583.596 526.148L510.608 484ZM429.694 525.003L367.42 489.043L438.426 448.04L500.698 484L429.694 525.003ZM502.683 572.874L435.16 611.865L362.172 569.718L429.694 530.725L502.683 572.874ZM434.649 527.865L505.653 486.861L578.641 529.01L507.637 570.012L434.649 527.865ZM576.178 440.444L576.163 440.42L576.149 440.429L508.922 401.606L285.033 530.894L510.296 660.977L734.184 531.689L576.178 440.444Z" fill="#F0EFFB"/>
<path d="M198.601 373.598V378.075C198.741 379.314 199.671 380.609 201.444 381.622C203.866 383.03 207.159 383.565 209.946 383.143C211.127 382.974 212.226 382.636 213.127 382.101L263.628 352.931C264.952 352.2 265.571 351.187 265.628 350.143L265.655 345.78L262.446 346.034C259.012 344.204 254.029 344.034 251.129 345.723L208.34 370.417L201.276 374.499L201.135 373.598H198.601Z" fill="#C7784C"/>
<path d="M198.601 373.598V378.075C198.741 379.314 199.671 380.609 201.444 381.622C203.866 383.03 207.159 383.565 209.946 383.143V370.417H208.34L201.276 374.499L201.135 373.598H198.601Z" fill="#DFCFB5"/>
<path d="M213.126 377.888L263.64 348.718C266.633 346.989 266.257 343.97 262.801 341.975V341.973C259.344 339.978 254.116 339.762 251.122 341.49L200.609 370.66C197.615 372.389 197.991 375.408 201.448 377.404C204.904 379.399 210.133 379.616 213.126 377.888Z" fill="white"/>
<path d="M440.606 366.875L440.59 366.847L440.573 366.855L362.429 321.729L146.473 446.101L417.905 602.783L633.86 478.412L440.606 366.875Z" fill="#E8E6F9"/>
<path d="M633.861 438.304L574.893 404.252V365.201L581.148 367.467L574.89 363.876V359.976L533.054 339.482L532.886 339.777L450.132 292.299L446.346 290.928V288.207L400.38 216.302L383.36 226.137L345.623 236.21L194.262 323.674L198.357 322.581L198.237 322.651V349.755L146.474 379.646V306.38L362.44 182L633.861 338.674V438.304Z" fill="url(#paint0_linear_190_8364)"/>
<path d="M633.861 472.179L574.894 438.127V403.746L633.861 437.797V472.179ZM146.474 439.297V379.139L198.237 349.249V386.268V409.944L146.474 439.297Z" fill="url(#paint1_linear_190_8364)"/>
<path d="M292.523 377.099L198.237 322.652L349.596 235.188L443.883 289.636L292.523 377.099Z" fill="#5F259F"/>
<path d="M292.523 489.996V377.099L443.882 289.636V402.533L292.523 489.996Z" fill="#5F259F"/>
<path d="M334.468 460.545L301.432 479.623V404.6L334.468 385.523V460.545Z" fill="#F7F7FD"/>
<path d="M198.237 435.549V322.653L292.523 377.099V489.996L198.237 435.549Z" fill="#5F259F"/>
<path d="M211.012 349.528V422.115L223.635 429.389V356.8L211.012 349.528Z" fill="#F7F7FD"/>
<path d="M228.67 359.718V432.305L241.291 439.579V366.991L228.67 359.718Z" fill="#F7F7FD"/>
<path d="M246.327 369.908V442.496L258.95 449.769V377.182L246.327 369.908Z" fill="#F7F7FD"/>
<path d="M263.985 380.098V452.684L276.607 459.958V387.371L263.985 380.098Z" fill="#F7F7FD"/>
<path d="M473.084 423.561L342.068 348.394L443.877 289.629L574.893 364.797L473.084 423.561Z" fill="#5F259F"/>
<path d="M342.068 461.382V348.396L473.084 423.562V536.55L342.068 461.382Z" fill="#5F259F"/>
<path d="M464.052 523.389L351.099 458.164V383.487L464.052 448.713V523.389Z" fill="#F7F7FD"/>
<path d="M317.789 376.613L312.633 370.765L336.099 357.204L342.068 360.629V363.161L317.789 376.613Z" fill="#100A55"/>
<path d="M342.068 363.161V360.629L342.079 360.636L342.08 363.155L342.068 363.161Z" fill="#013BA1"/>
<path d="M194.261 323.675L249.018 309.058L400.379 221.594L345.622 236.211L194.261 323.675Z" fill="#5598E9"/>
<path d="M294.986 380.962L249.018 309.057L400.378 221.593L446.345 293.498L294.986 380.962Z" fill="#3F461D"/>
<path d="M446.347 288.207V293.498L294.987 380.962V375.67L446.347 288.207Z" fill="#5F259F"/>
<path d="M262.531 348.093L245.328 323.704L212.644 330.973L198.237 322.653L200.904 321.903L249.019 309.06L272.171 345.274L262.531 348.093Z" fill="#100A55"/>
<path d="M198.241 334.174L198.237 322.651L212.644 330.971L198.241 334.174Z" fill="#100A55"/>
<path d="M200.904 321.903L248.808 308.443L249.018 308.774V309.059L200.904 321.903Z" fill="#073CAE"/>
<path d="M194.261 318.383L249.018 303.768L400.379 216.303L345.622 230.919L194.261 318.383Z" fill="#5F259F"/>
<path d="M294.986 375.671L249.018 303.767L400.378 216.302L446.345 288.208L294.986 375.671Z" fill="#5F259F"/>
<path d="M325.79 336.387L299.847 327.114L299.85 310.076L321.426 318.043L331.198 329.085L325.79 336.387Z" fill="#100A55"/>
<path d="M299.848 308.757L290.468 303.341L299.79 297.958L309.169 303.375L299.848 308.757Z" fill="#9B3EF2"/>
<path d="M299.85 308.707L289.774 302.887L299.786 297.105L309.863 302.924L299.85 308.707Z" fill="#5F259F"/>
<path d="M299.85 310.456L309.864 304.673V302.923L299.85 308.706V310.456Z" fill="#100A55"/>
<path d="M289.775 304.637L299.85 310.456V308.706L289.775 302.886V304.637Z" fill="#9B3EF2"/>
<path d="M306.429 303.363L299.836 307.18L299.815 307.157L293.22 303.342L299.792 299.548L299.815 299.571L306.429 303.363Z" fill="#100A55"/>
<path d="M306.429 303.363L299.835 307.18L299.814 307.157V299.571L306.429 303.363Z" fill="#9B3EF2"/>
<path d="M299.847 327.113L309.169 321.731V303.375L299.847 308.757V327.113Z" fill="#5F259F"/>
<path d="M290.47 312.539L299.848 327.113V308.757L290.47 303.341V312.539Z" fill="#9B3EF2"/>
<path d="M299.852 299.075L298.528 298.309L299.843 297.55L301.168 298.314L299.852 299.075Z" fill="#9B3EF2"/>
<path d="M299.853 308.261L301.168 307.502V298.314L299.853 299.075V308.261Z" fill="#100A55"/>
<path d="M298.528 307.497L299.852 308.261V299.075L298.528 298.309V307.497Z" fill="#9B3EF2"/>
<path d="M299.853 299.075L298.96 298.559L299.838 298.055L300.739 298.563L299.853 299.075Z" fill="#096EA8"/>
<path d="M299.862 301.894L299.853 301.888V299.076L300.738 298.565L301.164 298.804V301.145L299.862 301.894Z" fill="#093B7D"/>
<path d="M299.852 301.888L298.533 301.12V298.803L298.959 298.56L299.852 299.076V301.888Z" fill="#096EA8"/>
<path d="M307.858 294.447L306.533 293.683L307.848 292.922L309.174 293.687L307.858 294.447Z" fill="#9B3EF2"/>
<path d="M307.857 303.633L309.174 302.874V293.686L307.857 294.447V303.633Z" fill="#100A55"/>
<path d="M306.533 302.869L307.858 303.633V294.447L306.533 293.682V302.869Z" fill="#9B3EF2"/>
<path d="M307.858 294.447L306.958 293.929L307.535 293.591L308.429 294.117L307.858 294.447Z" fill="#096EA8"/>
<path d="M307.857 297.272V294.448L308.428 294.118L309.174 294.556V296.512L307.857 297.272Z" fill="#093B7D"/>
<path d="M307.852 297.273L306.545 296.666V294.171L306.958 293.929L307.858 294.447V297.271L307.852 297.273Z" fill="#096EA8"/>
<path d="M291.794 294.423L290.468 293.659L291.785 292.899L293.109 293.664L291.794 294.423Z" fill="#9B3EF2"/>
<path d="M291.794 303.611L293.109 302.851V293.664L291.794 294.424V303.611Z" fill="#100A55"/>
<path d="M290.468 302.846L291.794 303.611V294.423L290.468 293.659V302.846Z" fill="#9B3EF2"/>
<path d="M291.794 294.423L291.205 294.084L292.092 293.566L292.676 293.914L291.794 294.423Z" fill="#096EA8"/>
<path d="M291.794 297.246V294.424L292.676 293.915L293.105 294.172V296.513L291.794 297.246Z" fill="#093B7D"/>
<path d="M291.79 297.247L290.476 296.486V294.508L291.205 294.085L291.794 294.424V297.245L291.79 297.247Z" fill="#096EA8"/>
<path d="M299.854 299.061L288.771 292.66L299.784 286.301L310.867 292.7L299.854 299.061Z" fill="white"/>
<path d="M299.855 300.987L310.868 294.626V292.701L299.855 299.062V300.987Z" fill="#9B3EF2"/>
<path d="M288.771 294.587L299.854 300.987V299.062L288.771 292.662V294.587Z" fill="#5F259F"/>
<path d="M467.042 432.331L336.026 357.163L377.009 319.011L508.025 394.18L467.042 432.331Z" fill="#5598E9"/>
<path d="M450.13 292.299L402.035 274.883L533.052 350.051L581.146 367.467L450.13 292.299Z" fill="#DDB79B"/>
<path d="M533.054 350.051L508.025 394.18L377.009 319.012L402.036 274.883L533.054 350.051Z" fill="#433E44"/>
<path d="M473.088 438.302L342.08 363.155V360.637L467.042 432.331L473.084 426.707V438.3" fill="#100A55"/>
<path d="M342.08 351.527V348.458L342.291 348.337L344.282 349.479L342.08 351.527Z" fill="#02288E"/>
<path d="M342.08 348.458V348.216L342.291 348.337L342.08 348.458Z" fill="#0852BE"/>
<path d="M467.042 432.331L342.08 360.637V351.527L344.282 349.478L473.088 423.362L473.084 426.707L467.042 432.331Z" fill="#073CAE"/>
<path d="M467.042 427.12L336.026 351.95L377.009 313.801L508.025 388.969L467.042 427.12Z" fill="#5F259F"/>
<path d="M450.13 287.085L402.035 269.67L533.052 344.838L581.146 362.253L450.13 287.085Z" fill="#5F259F"/>
<path d="M533.053 344.839L508.025 388.966L377.009 313.8L402.036 269.671L533.053 344.839Z" fill="#5F259F"/>
<path d="M249.018 303.767V309.058L194.261 323.675V318.383L249.018 303.767Z" fill="#5F259F"/>
<path d="M249.018 303.766V309.057L294.986 380.962V375.67L249.018 303.766Z" fill="#100A55"/>
<path d="M467.042 432.331V427.118L336.026 351.949V357.162L467.042 432.331Z" fill="#5F259F"/>
<path d="M413.651 328.578V301.614L406.255 297.34L404.716 282.867H413.651L441.137 298.174L440.67 302.136L433.616 313.612L413.651 328.578Z" fill="#100A55"/>
<path d="M422.666 297.495V312.786L413.651 328.578V301.614L422.666 297.495Z" fill="#5F259F"/>
<path d="M413.651 328.578L395.78 318.249V291.287L413.651 301.614V328.578Z" fill="#9B3EF2"/>
<path d="M411.149 301.005L391.057 289.392L405.049 281.565L425.143 293.177L411.149 301.005Z" fill="#5F259F"/>
<path d="M411.149 300.112L391.057 288.498L405.049 280.671L425.143 292.283L411.149 300.112Z" fill="white"/>
<path d="M412.494 303.168L422.667 297.494L425.143 293.178L411.149 301.006L412.494 303.168Z" fill="#100A55"/>
<path d="M391.057 289.393L392.401 291.555L412.494 303.168L411.149 301.006L391.057 289.393Z" fill="#9B3EF2"/>
<path d="M411.149 301.005V300.11L425.143 292.281V293.177L411.149 301.005Z" fill="#9B3EF2"/>
<path d="M411.149 301.005V300.11L391.057 288.497V289.393L411.149 301.005Z" fill="#5F259F"/>
<path d="M397.369 317.8V296.406L412.066 304.888V326.281L397.369 317.8Z" fill="#9B3EF2"/>
<path d="M399.091 299.398V316.808L410.343 323.292V305.882L399.091 299.398Z" fill="white"/>
<path d="M401.029 300.517V315.983L410.343 321.346V323.292L399.091 316.809V299.398L401.029 300.517Z" fill="#100A55"/>
<path d="M401.029 315.983L399.091 316.809L410.343 323.292V321.346L401.029 315.983Z" fill="#5F259F"/>
<path d="M402.463 316.809H399.091L401.03 315.982V300.517L402.501 301.363L402.463 316.809Z" fill="#100A55"/>
</g>
<defs>
<linearGradient id="paint0_linear_190_8364" x1="390.168" y1="278.131" x2="390.168" y2="409.704" gradientUnits="userSpaceOnUse">
<stop stop-color="#F7F7FD"/>
<stop offset="1" stop-color="#E8E6F9"/>
</linearGradient>
<linearGradient id="paint1_linear_190_8364" x1="390.168" y1="278.134" x2="390.168" y2="409.706" gradientUnits="userSpaceOnUse">
<stop stop-color="#FFFCF7"/>
<stop offset="1" stop-color="#E8E6F9"/>
</linearGradient>
</defs>
</svg>
