<svg width="1440" height="1024" viewBox="0 0 1440 1024" fill="none" xmlns="http://www.w3.org/2000/svg">
<circle cx="241" cy="199" r="12" fill="#C19CFC"/>
<path d="M1435 923.836C1435 936.753 1424.32 947.345 1411 947.345C1397.68 947.345 1387 936.753 1387 923.836C1387 910.919 1397.68 900.327 1411 900.327C1424.32 900.327 1435 910.919 1435 923.836Z" stroke="#E40173" stroke-width="8"/>
<path d="M1326.11 311.643L1346.6 306.152L1341.11 285.662L1361.6 280.171L1356.11 259.681L1376.6 254.191" stroke="#00A7E5" stroke-width="8" stroke-linecap="round" stroke-linejoin="round"/>
<path d="M1226.94 101.78C1230.52 96.6535 1235.3 92.4765 1240.86 89.6111C1246.42 86.7456 1252.6 85.2779 1258.85 85.3348C1265.11 85.3918 1271.25 86.9718 1276.76 89.9381C1282.26 92.9044 1286.97 97.1677 1290.45 102.359" stroke="#E2A21F" stroke-width="8"/>
<rect x="86" y="846" width="40" height="40" fill="#BFBDF7"/>
<path d="M363 62.3333L383.785 98.3333H342.215L363 62.3333Z" fill="#00CC67"/>
<path d="M28 296L52.2487 310V338L28 352L3.75129 338V310L28 296Z" fill="#BFBDF7"/>
</svg>
