<svg width="147" height="148" viewBox="0 0 147 148" fill="none" xmlns="http://www.w3.org/2000/svg">
<mask id="mask0_2932_1691" style="mask-type:alpha" maskUnits="userSpaceOnUse" x="0" y="-148" width="147" height="296">
<rect x="147" y="-148" width="295.985" height="146.721" transform="rotate(90 147 -148)" fill="#C4C4C4"/>
</mask>
<g mask="url(#mask0_2932_1691)">
<path d="M-0.721893 -420.42L-523.452 108.694" stroke="#CEDBFD" strokeWidth="9.32905"/>
<path d="M258.707 -164.122L-264.023 364.993" stroke="#CEDBFD" strokeWidth="9.32905"/>
<path d="M25.2211 -394.79L-497.509 134.324" stroke="#CEDBFD" strokeWidth="9.32905"/>
<path d="M284.65 -138.492L-238.08 390.623" stroke="#CEDBFD" strokeWidth="9.32905"/>
<path d="M51.164 -369.16L-471.566 159.954" stroke="#CEDBFD" strokeWidth="9.32905"/>
<path d="M310.593 -112.862L-212.137 416.253" stroke="#CEDBFD" strokeWidth="9.32905"/>
<path d="M77.1069 -343.531L-445.623 185.584" stroke="#CEDBFD" strokeWidth="9.32905"/>
<path d="M336.536 -87.2321L-186.194 441.883" stroke="#CEDBFD" strokeWidth="9.32905"/>
<path d="M103.05 -317.901L-419.68 211.214" stroke="#CEDBFD" strokeWidth="9.32905"/>
<path d="M362.479 -61.6021L-160.251 467.513" stroke="#CEDBFD" strokeWidth="9.32905"/>
<path d="M128.993 -292.271L-393.737 236.844" stroke="#CEDBFD" strokeWidth="9.32905"/>
<path d="M388.422 -35.9723L-134.308 493.142" stroke="#CEDBFD" strokeWidth="9.32905"/>
<path d="M154.936 -266.641L-367.794 262.474" stroke="#CEDBFD" strokeWidth="9.32905"/>
<path d="M414.365 -10.3425L-108.365 518.772" stroke="#CEDBFD" strokeWidth="9.32905"/>
<path d="M180.878 -241.011L-341.851 288.104" stroke="#CEDBFD" strokeWidth="9.32905"/>
<path d="M440.308 15.2874L-82.4223 544.402" stroke="#CEDBFD" strokeWidth="9.32905"/>
<path d="M206.821 -215.381L-315.909 313.733" stroke="#CEDBFD" strokeWidth="9.32905"/>
<path d="M466.25 40.9172L-56.4795 570.032" stroke="#CEDBFD" strokeWidth="9.32905"/>
<path d="M232.764 -189.752L-289.966 339.363" stroke="#CEDBFD" strokeWidth="9.32905"/>
<path d="M492.193 66.547L-30.5366 595.662" stroke="#CEDBFD" strokeWidth="9.32905"/>
</g>
</svg>
