<svg width="588" height="807" viewBox="0 0 588 807" fill="none" xmlns="http://www.w3.org/2000/svg">
<mask id="mask0_4371_23677" style="mask-type:alpha" maskUnits="userSpaceOnUse" x="0" y="0" width="588" height="807">
<rect width="588" height="807" fill="#C4C4C4"/>
</mask>
<g mask="url(#mask0_4371_23677)">
<rect x="-4" width="592" height="912" fill="#FFC3C3"/>
<path d="M292 442C292 360.262 358.262 294 440 294H588V911.5H292L292 442Z" fill="#413EB1"/>
<path fill-rule="evenodd" clip-rule="evenodd" d="M587.488 159.15C587.827 155.143 588 151.091 588 147C588 142.909 587.827 138.857 587.488 134.85V0H437.535L437.542 0.00741072C437.029 0.00247412 436.515 0 436 0C352.053 0 284 65.8141 284 147C284 228.186 352.053 294 436 294C515.485 294 580.721 234.996 587.431 159.808L587.488 159.869V159.15Z" fill="#00CCFF"/>
<path fill-rule="evenodd" clip-rule="evenodd" d="M292.414 589.701L290.718 446.337L290.711 446.343C290.71 445.852 290.707 445.361 290.701 444.869C289.752 364.61 223.129 300.326 141.895 301.286C60.6611 302.247 -4.42262 368.089 -3.47342 448.348C-2.57467 524.341 57.2018 586.012 132.511 591.538L132.45 591.593L133.169 591.584C137.182 591.861 141.239 591.978 145.332 591.93C149.426 591.882 153.479 591.668 157.484 591.297L292.414 589.701Z" fill="#FD7B7E"/>
<path d="M284 153C284 234.738 217.738 301 136 301L-4.99997 301L-5 -5.2524e-06L284 -3.05176e-05L284 153Z" fill="#3A4269"/>
<path d="M-4 739.253C-4 658.002 61.5037 591.944 142.752 591.259L292 590V912H-4V739.253Z" fill="white"/>
<path fill-rule="evenodd" clip-rule="evenodd" d="M-4.75761 77.9506C-4.91815 75.9883 -5 74.0037 -5 72C-5 69.9963 -4.91815 68.0117 -4.75761 66.0494V0H66.2727L66.2694 0.00363011C66.5126 0.00121194 66.7562 0 67 0C106.765 0 139 32.2355 139 72C139 111.765 106.765 144 67 144C29.3491 144 -1.55197 115.1 -4.7305 78.2731L-4.75761 78.303V77.9506Z" fill="#CEDBFD"/>
<path fill-rule="evenodd" clip-rule="evenodd" d="M587.758 834.049C587.918 836.012 588 837.996 588 840C588 842.004 587.918 843.988 587.758 845.951L587.758 912L516.727 912L516.731 911.996C516.487 911.999 516.244 912 516 912C476.235 912 444 879.765 444 840C444 800.235 476.236 768 516 768C553.651 768 584.552 796.9 587.731 833.727L587.758 833.697L587.758 834.049Z" fill="#FFC3C3"/>
<ellipse cx="288.5" cy="297.5" rx="61.5" ry="62.5" fill="white"/>
<circle cx="291" cy="592" r="26" fill="#FFC1C1"/>
<circle cx="410" cy="422" r="26" fill="#FD7B7E"/>
<circle cx="518" cy="70" r="26" fill="#CEDBFD"/>
</g>
</svg>
