<svg width="143" height="35" viewBox="0 0 143 35" fill="none" xmlns="http://www.w3.org/2000/svg">
<g id="Jupita.co-New Logo-SVG 1" clipPath="url(#clip0_2911_1519)">
<g id="Layer_x0020_1">
<path id="Vector" fill-rule="evenodd" clip-rule="evenodd" d="M17.5004 0C23.1585 0 28.1872 2.68663 31.3872 6.8502C22.6451 9.03044 13.038 9.41726 5.8748 4.42027C8.96583 1.67035 13.038 0 17.5004 0ZM33.7081 10.8907C34.1512 11.9738 34.4853 13.1096 34.7068 14.2877C29.8294 19.3128 23.7177 23.3568 17.096 25.5863C12.4859 27.137 7.72449 27.7735 3.01586 27.3199C1.11342 24.5207 0.00219727 21.1378 0.00219727 17.4982C0.00219727 13.9325 1.07122 10.6129 2.90333 7.84537C11.5153 14.1294 23.1093 13.7285 33.7081 10.8907ZM34.749 20.4556C33.3424 28.7124 26.1546 34.9965 17.5004 34.9965C13.8327 34.9965 10.4322 33.8677 7.619 31.9406C11.2902 31.7789 14.9545 31.065 18.5343 29.8624C24.4561 27.872 29.9982 24.577 34.749 20.4521V20.4556Z" fill="#1354DC"/>
<path id="Vector_2" d="M39.4965 16.795H43.3365C43.3541 16.8126 43.3611 16.8477 43.3611 16.897C43.3611 16.9638 43.3576 17.0412 43.3471 17.1291C43.34 17.2135 43.333 17.2908 43.333 17.3612C43.333 17.5651 43.3787 17.8394 43.4737 18.1805C43.5686 18.5216 43.6987 18.8733 43.871 19.232C44.0433 19.5906 44.3493 19.9036 44.7924 20.1673C45.2354 20.4311 45.7735 20.5647 46.4064 20.5647C47.5493 20.5647 48.3476 20.2482 48.8012 19.6188C49.2548 18.9858 49.4799 18.0996 49.4799 16.9568V7.0718H53.2707V16.9568C53.2707 19.1405 52.7432 20.8285 51.6847 22.0135C50.6263 23.1986 48.868 23.7929 46.41 23.7929C45.471 23.7929 44.6271 23.6979 43.8745 23.5116C43.122 23.3252 42.5136 23.0896 42.0424 22.8083C41.5712 22.5269 41.1668 22.1647 40.8257 21.7217C40.4846 21.2786 40.2279 20.8671 40.0591 20.4944C39.8868 20.1181 39.7602 19.668 39.6758 19.137C39.5914 18.6095 39.5387 18.1981 39.5211 17.9097C39.5035 17.6179 39.4965 17.2521 39.4965 16.8091V16.795ZM54.7582 18.177V12.0055H58.5209V18.177C58.5209 19.1687 58.6862 19.8825 59.0202 20.3291C59.3543 20.7722 59.9134 20.9937 60.6976 20.9937C61.4642 20.9937 62.0022 20.8074 62.3117 20.4311C62.6176 20.0548 62.797 19.5273 62.8497 18.8451V12.009H66.6405V23.5327H62.9271V22.4566C62.2273 23.2935 61.2532 23.7366 60.0084 23.7894C59.8712 23.7894 59.7446 23.7894 59.6251 23.7894C57.8492 23.7894 56.5938 23.3287 55.8624 22.4074C55.1274 21.486 54.7617 20.0759 54.7617 18.184L54.7582 18.177ZM68.3039 28.2132V12.0055H71.9927V13.3875C72.6257 12.4486 73.5962 11.9211 74.9114 11.8015C75.1505 11.7839 75.3826 11.7769 75.6042 11.7769C77.3273 11.7769 78.7655 12.336 79.9189 13.4543C81.0724 14.5726 81.6491 16.0178 81.6491 17.7937C81.6491 19.6539 81.09 21.1133 79.9717 22.1718C78.8534 23.2302 77.4398 23.7577 75.7343 23.7577C75.4776 23.7577 75.2138 23.7507 74.9395 23.7331C73.6771 23.6487 72.7206 23.1283 72.0701 22.1718V28.2132H68.3074H68.3039ZM72.0173 17.7656C72.0173 18.824 72.2916 19.5871 72.8367 20.0583C73.3817 20.5296 74.0921 20.7616 74.9606 20.7616C75.78 20.7616 76.4587 20.519 76.9967 20.0302C77.5347 19.5449 77.802 18.7959 77.802 17.7902C77.802 16.7845 77.5347 16.0284 76.9967 15.5255C76.4587 15.0227 75.78 14.7695 74.9606 14.7695C74.0569 14.7695 73.3395 14.984 72.8085 15.4095C72.281 15.835 72.0138 16.6227 72.0138 17.7656H72.0173ZM86.9731 12.0055V23.5292H83.1823V12.0055H86.9731ZM82.901 8.98479C82.901 8.3694 83.1155 7.84896 83.541 7.42346C83.9665 6.99796 84.4729 6.78345 85.0531 6.78345C85.6685 6.78345 86.1889 6.99796 86.6144 7.42346C87.0399 7.84896 87.2544 8.3694 87.2544 8.98479C87.2544 9.56502 87.0399 10.0644 86.6144 10.4828C86.1889 10.9013 85.6685 11.1088 85.0531 11.1088C84.4729 11.1088 83.97 10.9013 83.541 10.4828C83.1155 10.0644 82.901 9.56502 82.901 8.98479ZM88.0984 12.0055H89.4804V8.62611H93.2712V12.0055H95.986V15.1563H93.2958V19.4324C93.2958 19.7911 93.3591 20.0372 93.4892 20.1744C93.6158 20.3115 93.862 20.3783 94.2207 20.3783H95.986V23.5292H94.2207C92.3956 23.5292 91.1472 23.2689 90.4826 22.7485C89.818 22.228 89.4839 21.1238 89.4839 19.4324V15.1563H88.1019V12.0055H88.0984ZM96.7526 20.2764C96.7526 17.7656 99.2704 16.3836 104.306 16.1269H104.844C104.981 16.1093 105.076 16.1022 105.125 16.1022V15.8702C105.125 14.9488 104.408 14.4882 102.973 14.4882C102.632 14.4882 102.333 14.5233 102.077 14.5901C101.82 14.657 101.63 14.7378 101.5 14.8328C101.373 14.9277 101.268 15.0262 101.194 15.1282C101.117 15.2301 101.078 15.3145 101.078 15.3849L101.053 15.4869H97.3152C97.3152 15.3849 97.3328 15.2477 97.368 15.0789C97.4031 14.9066 97.5332 14.6077 97.7653 14.1822C97.9974 13.7567 98.2928 13.3805 98.662 13.0569C99.0278 12.7334 99.5939 12.4345 100.353 12.1602C101.113 11.8859 101.996 11.7523 103.005 11.7523C104.883 11.7523 106.321 12.1145 107.32 12.8389C108.318 13.5633 108.818 14.5831 108.818 15.8983L108.842 19.0491V19.5098C108.842 19.8333 108.895 20.0619 108.997 20.1884C109.099 20.315 109.271 20.3819 109.511 20.3819H109.637V23.5327H109.535C108.424 23.5327 107.569 23.4377 106.961 23.2513C106.356 23.065 105.906 22.7309 105.618 22.2527C104.746 23.276 103.339 23.7894 101.394 23.7894C99.8225 23.7894 98.6585 23.4553 97.899 22.7907C97.1394 22.1261 96.7596 21.2891 96.7596 20.2799L96.7526 20.2764ZM101.029 20.839C101.335 21.0113 101.721 21.1027 102.182 21.1203C102.217 21.1203 102.249 21.1203 102.284 21.1203C102.984 21.1203 103.634 20.9199 104.229 20.519C104.827 20.1181 105.125 19.5238 105.125 18.7396V18.3036C104.665 18.3388 104.324 18.3634 104.102 18.381C103.881 18.3985 103.547 18.4337 103.103 18.4829C102.66 18.5357 102.323 18.6025 102.091 18.6869C101.859 18.7713 101.609 18.8803 101.335 19.0069C101.06 19.1335 100.863 19.2917 100.747 19.4816C100.628 19.668 100.568 19.8895 100.568 20.1463C100.568 20.4381 100.723 20.6667 101.029 20.839ZM111.782 19.9423C112.194 19.5168 112.686 19.3023 113.266 19.3023C113.882 19.3023 114.402 19.5168 114.828 19.9423C115.253 20.3854 115.468 20.9058 115.468 21.5036C115.468 22.1014 115.253 22.6078 114.828 23.0263C114.402 23.4448 113.882 23.6522 113.266 23.6522C112.686 23.6522 112.187 23.4377 111.768 23.0122C111.35 22.5867 111.142 22.0803 111.142 21.5001C111.142 20.9023 111.357 20.3819 111.782 19.9388V19.9423ZM116.213 17.6636C116.213 15.8877 116.776 14.46 117.904 13.3734C119.03 12.2903 120.619 11.7488 122.666 11.7488C123.742 11.7488 124.688 11.8965 125.507 12.1954C126.327 12.4943 126.931 12.853 127.325 13.2714C127.719 13.6899 128.032 14.1084 128.271 14.5268C128.51 14.9453 128.647 15.3005 128.679 15.5888L128.756 16.0495H125.018C125.018 16.0143 125.004 15.9686 124.98 15.9088C124.955 15.8491 124.885 15.7436 124.776 15.5888C124.663 15.4341 124.533 15.297 124.378 15.1809C124.224 15.0614 123.995 14.9559 123.686 14.8609C123.38 14.766 123.039 14.7202 122.662 14.7202C120.922 14.7202 120.05 15.7014 120.05 17.6636C120.05 19.7629 120.922 20.8144 122.662 20.8144C123.26 20.8144 123.756 20.6667 124.146 20.3678C124.54 20.0689 124.786 19.7735 124.888 19.4851L125.015 19.0245H128.728C128.711 19.1616 128.686 19.3375 128.651 19.5484C128.616 19.7629 128.472 20.1427 128.215 20.6878C127.958 21.2329 127.635 21.7146 127.241 22.1331C126.847 22.5516 126.249 22.9313 125.447 23.2724C124.646 23.6135 123.714 23.7859 122.655 23.7859C120.591 23.7859 118.998 23.2408 117.88 22.1472C116.762 21.0535 116.202 19.5625 116.202 17.6671L116.213 17.6636ZM129.323 17.7656C129.323 16.0741 129.917 14.6499 131.102 13.4895C132.287 12.329 133.922 11.7488 136.004 11.7488C138.086 11.7488 139.721 12.329 140.906 13.4895C142.091 14.6499 142.685 16.0741 142.685 17.7656C142.685 19.4711 142.098 20.8988 140.92 22.0417C139.725 23.2021 138.086 23.7823 136.004 23.7823C133.922 23.7823 132.287 23.2021 131.102 22.0417C129.917 20.8812 129.323 19.457 129.323 17.7656ZM133.88 19.9423C134.341 20.5225 135.051 20.8144 136.004 20.8144C136.943 20.8144 137.657 20.5225 138.142 19.9423C138.627 19.3621 138.874 18.6377 138.874 17.7656C138.874 16.8266 138.634 16.0847 138.156 15.5361C137.678 14.991 136.961 14.7167 136.004 14.7167C134.109 14.7167 133.163 15.733 133.163 17.7656C133.163 18.6377 133.402 19.3621 133.88 19.9423Z" fill="#1354DC"/>
</g>
</g>
<defs>
<clipPath id="clip0_2911_1519">
<rect width="142.695" height="35" fill="white"/>
</clipPath>
</defs>
</svg>
