<svg width="64" height="64" viewBox="0 0 64 64" fill="none" xmlns="http://www.w3.org/2000/svg">
<circle cx="32" cy="32" r="32" fill="#100A55"/>
<path d="M28.0001 45.3333H36.0001C42.6667 45.3333 45.3334 42.6666 45.3334 36V28C45.3334 21.3333 42.6667 18.6666 36.0001 18.6666H28.0001C21.3334 18.6666 18.6667 21.3333 18.6667 28V36C18.6667 42.6666 21.3334 45.3333 28.0001 45.3333Z" stroke="white" strokeWidth="3" strokeLinecap="round" strokeLinejoin="round"/>
<path d="M28.1333 31.9999V30.0265C28.1333 27.4799 29.9333 26.4532 32.1333 27.7199L33.84 28.7065L35.5466 29.6932C37.7466 30.9599 37.7466 33.0399 35.5466 34.3065L33.84 35.2932L32.1333 36.2799C29.9333 37.5465 28.1333 36.5065 28.1333 33.9732V31.9999Z" stroke="white" strokeWidth="3" strokeMiterlimit="10" strokeLinecap="round" strokeLinejoin="round"/>
</svg>
